<svg width="131" height="30" viewBox="0 0 131 30" fill="none" xmlns="http://www.w3.org/2000/svg">
<path d="M12.3412 12.3267C12.4267 12.2374 12.4344 12.0968 12.3524 12.0041L8.52615 7.67838C8.29223 7.44141 7.91202 7.44046 7.67694 7.67625C7.44185 7.91204 7.4409 8.29529 7.67482 8.53225L12.0112 12.3464C12.107 12.4306 12.253 12.4189 12.3412 12.3267Z" fill="#A03968"/>
<path d="M17.6588 12.3267C17.5732 12.2374 17.5656 12.0968 17.6476 12.0041L21.4738 7.67838C21.7078 7.44141 22.088 7.44046 22.3231 7.67625C22.5581 7.91204 22.5591 8.29529 22.3252 8.53225L17.9888 12.3464C17.893 12.4306 17.747 12.4189 17.6588 12.3267Z" fill="#A03968"/>
<path d="M17.6588 17.6733C17.5733 17.7627 17.5656 17.9033 17.6476 17.9959L21.4739 22.3216C21.7078 22.5586 22.088 22.5596 22.3231 22.3238C22.5582 22.088 22.5591 21.7047 22.3252 21.4678L17.9888 17.6537C17.893 17.5694 17.747 17.5811 17.6588 17.6733Z" fill="#A03968"/>
<path d="M12.3412 17.6733C12.4267 17.7627 12.4344 17.9033 12.3524 17.9959L8.52615 22.3216C8.29223 22.5586 7.91203 22.5596 7.67694 22.3238C7.44185 22.088 7.44091 21.7047 7.67483 21.4678L12.0112 17.6537C12.107 17.5694 12.253 17.5811 12.3412 17.6733Z" fill="#A03968"/>
<path d="M13.9062 11.1142C14.2187 11.6042 14.5833 12.0689 15 12.4999C15.1041 12.3921 15.205 12.2823 15.3027 12.1705C15.7129 11.7007 16.0656 11.1962 16.3609 10.6666C16.839 9.8092 17.1666 8.88614 17.3437 7.93874C17.8645 5.15215 17.0833 2.15504 15 0C13.6987 1.34607 12.9054 3.02067 12.6201 4.7673C12.266 6.93552 12.6947 9.21473 13.9062 11.1142Z" fill="#A03968"/>
<path d="M11.1142 16.0938C11.6041 15.7813 12.0688 15.4167 12.4998 15C12.3921 14.8959 12.2822 14.7949 12.1704 14.6973C11.7007 14.2871 11.1961 13.9344 10.6665 13.639C9.80915 13.1609 8.88609 12.8334 7.9387 12.6563C5.15212 12.1355 2.15503 12.9167 0 15C1.34606 16.3013 3.02066 17.0946 4.76727 17.3798C6.93548 17.734 9.21468 17.3053 11.1142 16.0938Z" fill="#A03968"/>
<path d="M16.0938 18.8858C15.7813 18.3958 15.4167 17.9311 15 17.5001C14.8959 17.6079 14.795 17.7177 14.6973 17.8295C14.2871 18.2993 13.9344 18.8038 13.639 19.3334C13.161 20.1908 12.8334 21.1139 12.6563 22.0613C12.1355 24.8479 12.9167 27.845 15 30C16.3013 28.6539 17.0946 26.9793 17.3798 25.2327C17.734 23.0645 17.3053 20.7853 16.0938 18.8858Z" fill="#A03968"/>
<path d="M18.8858 13.9062C18.3959 14.2187 17.9312 14.5833 17.5002 15C17.6079 15.1041 17.7178 15.2051 17.8296 15.3027C18.2993 15.7129 18.8039 16.0656 19.3335 16.361C20.1908 16.8391 21.1139 17.1666 22.0613 17.3437C24.8479 17.8645 27.845 17.0833 30 15C28.6539 13.6987 26.9793 12.9054 25.2327 12.6202C23.0645 12.266 20.7853 12.6947 18.8858 13.9062Z" fill="#A03968"/>
<path d="M121.197 4.68296C121.135 4.96554 121.1 5.25757 121.095 5.55607C121.169 5.55481 121.243 5.55166 121.316 5.54667C121.623 5.5257 121.923 5.47225 122.211 5.38974C122.677 5.25618 123.114 5.04648 123.507 4.77522C124.662 3.97734 125.435 2.64681 125.46 1.1543C124.536 1.17007 123.674 1.48043 122.965 1.99503C122.084 2.63385 121.438 3.58743 121.197 4.68296Z" fill="#A03968"/>
<path d="M77.5051 17.5605C77.5051 12.5499 80.8825 8.32736 85.7344 8.32736C89.0146 8.32736 93.1618 9.72173 93.3575 13.7895L90.6994 15.4512C90.9122 13.9156 90.3611 12.6464 89.2616 11.8004C88.162 10.9544 87.1521 10.6844 85.6762 10.6844C84.0352 10.6844 82.6223 11.3283 81.5834 12.3792C80.5444 13.4301 80.0977 15.0483 80.0977 17.5305C80.0977 20.0427 80.5111 21.3956 81.5695 22.4866C82.6279 23.5775 83.7714 24.1658 85.7134 24.1658C87.4321 24.1658 88.8109 23.7805 89.8499 23.0098C90.8986 22.2391 91.7936 21.0931 91.7936 19.5718C91.7936 19.0714 91.7103 18.6024 91.5452 18.2121L94.2988 20.057C94.2955 24.7362 89.8499 26.4939 85.7515 26.4939C80.7346 26.4939 77.5051 22.7049 77.5051 17.5605Z" fill="#A03968"/>
<path d="M66.9116 26.5389C64.3675 26.5389 62.4312 25.8146 61.1785 24.4634C59.9259 23.1122 59.2996 21.102 59.2996 18.4797V8.44887H61.8368V18.3016C61.8368 18.4756 61.836 18.6441 61.8352 18.8075C61.8291 20.0171 61.8244 20.9449 62.1752 21.6856C62.583 22.5163 63.1808 23.2599 63.909 23.6002C64.647 23.9405 65.8435 24.09 66.9116 24.09C67.9797 24.09 69.1762 23.9405 69.9141 23.6002C70.6424 23.2599 71.2402 22.5163 71.648 21.6856C71.9987 20.9449 71.9941 20.0171 71.988 18.8075C71.9872 18.6441 71.9863 18.4756 71.9863 18.3016V8.44887H74.5235V18.4797C74.5235 21.102 73.8972 23.1122 72.6446 24.4634C71.392 25.8146 69.4556 26.5389 66.9116 26.5389Z" fill="#A03968"/>
<path d="M122.773 26.5389C120.229 26.5389 118.292 25.8146 117.04 24.4634C115.787 23.1122 115.161 21.102 115.161 18.4797V8.44887H117.698V18.3016C117.698 18.4756 117.697 18.6441 117.696 18.8075C117.69 20.0171 117.686 20.9449 118.036 21.6856C118.444 22.5163 119.042 23.2599 119.77 23.6002C120.508 23.9405 121.705 24.09 122.773 24.09C123.841 24.09 125.037 23.9405 125.775 23.6002C126.504 23.2599 127.101 22.5163 127.509 21.6856C127.86 20.9449 127.855 20.0171 127.849 18.8075C127.848 18.6441 127.848 18.4756 127.848 18.3016V8.44887H130.385V18.4797C130.385 21.102 129.758 23.1122 128.506 24.4634C127.253 25.8146 125.317 26.5389 122.773 26.5389Z" fill="#A03968"/>
<path d="M41.5386 3.97195H44.2048V8.42727L43.1898 16.7093H44.4407L48.5833 12.5633L52.8171 8.4497H56.1918L47.5879 16.7093L45.558 17.0655V17.5999L47.5879 17.9561L56.7691 26.3607H53.35L44.4407 17.9561H43.1898L44.2028 26.3607H41.5386V3.97195Z" fill="#A03968"/>
<path d="M109.943 26.3723V16.8391C109.943 15.1777 109.759 14.3866 109.428 13.4258C109.098 12.4549 108.588 11.7643 107.899 11.354C107.21 10.9336 106.297 10.7234 105.161 10.7234C104.044 10.7234 103.078 11.0337 102.262 11.6542C101.447 12.2648 100.82 13.1555 100.383 14.3266C99.9464 15.4976 99.8695 16.4836 99.8695 18.115L99.9732 26.3723H97.309V3.97198H99.9732V8.59711L99.0006 14.528L99.4235 14.7951C99.7633 13.1937 100.281 12.1847 100.893 11.2339C101.515 10.273 102.257 9.58741 103.122 9.17705C103.986 8.76669 104.996 8.56151 106.151 8.56151C107.559 8.56151 108.724 8.83174 109.647 9.37222C110.569 9.90269 111.41 10.7786 111.886 12.0197C112.371 13.2507 112.607 14.4698 112.607 16.5316V26.3719L109.943 26.3723Z" fill="#A03968"/>
</svg>
