<svg width="21" height="21" viewBox="0 0 21 21" fill="none" xmlns="http://www.w3.org/2000/svg">
<path d="M8.63885 8.62872C8.69872 8.56615 8.70407 8.46773 8.6467 8.40287L5.9683 5.37487C5.80456 5.20899 5.53841 5.20832 5.37385 5.37338C5.20929 5.53843 5.20863 5.8067 5.37238 5.97258L8.40783 8.64245C8.4749 8.70144 8.57709 8.69325 8.63885 8.62872Z" fill="#A03968"/>
<path d="M12.3611 8.62872C12.3013 8.56615 12.2959 8.46773 12.3533 8.40287L15.0317 5.37487C15.1954 5.20899 15.4616 5.20832 15.6261 5.37338C15.7907 5.53843 15.7914 5.8067 15.6276 5.97258L12.5922 8.64245C12.5251 8.70144 12.4229 8.69325 12.3611 8.62872Z" fill="#A03968"/>
<path d="M12.3612 12.3713C12.3013 12.4339 12.2959 12.5323 12.3533 12.5972L15.0317 15.6252C15.1954 15.791 15.4616 15.7917 15.6261 15.6266C15.7907 15.4616 15.7914 15.1933 15.6276 15.0274L12.5922 12.3576C12.5251 12.2986 12.4229 12.3068 12.3612 12.3713Z" fill="#A03968"/>
<path d="M8.63885 12.3713C8.69872 12.4339 8.70408 12.5323 8.6467 12.5972L5.96831 15.6252C5.80456 15.791 5.53842 15.7917 5.37386 15.6266C5.2093 15.4616 5.20864 15.1933 5.37238 15.0274L8.40783 12.3576C8.4749 12.2986 8.57709 12.3068 8.63885 12.3713Z" fill="#A03968"/>
<path d="M9.73436 7.77997C9.9531 8.12294 10.2083 8.44822 10.5 8.74992C10.5729 8.6745 10.6435 8.5976 10.7119 8.51932C10.999 8.19051 11.2459 7.83733 11.4527 7.4666C11.7873 6.86644 12.0166 6.2203 12.1406 5.55712C12.5052 3.60651 11.9583 1.50853 10.5 0C9.58909 0.94225 9.0338 2.11447 8.8341 3.33711C8.58621 4.85486 8.88629 6.45031 9.73436 7.77997Z" fill="#A03968"/>
<path d="M7.77993 11.2656C8.12289 11.0469 8.44818 10.7917 8.74988 10.5C8.67445 10.4271 8.59755 10.3565 8.51927 10.2881C8.19047 10.001 7.83729 9.75405 7.46656 9.54732C6.86641 9.21266 6.22027 8.98336 5.55709 8.85941C3.60649 8.49482 1.50852 9.04169 0 10.5C0.942245 11.4109 2.11446 11.9662 3.33709 12.1659C4.85484 12.4138 6.45028 12.1137 7.77993 11.2656Z" fill="#A03968"/>
<path d="M11.2656 13.22C11.0469 12.8771 10.7917 12.5518 10.5 12.2501C10.4271 12.3255 10.3565 12.4024 10.2881 12.4807C10.001 12.8095 9.75406 13.1627 9.54733 13.5334C9.21268 14.1336 8.98337 14.7797 8.85942 15.4429C8.49484 17.3935 9.04171 19.4915 10.5 21C11.4109 20.0578 11.9662 18.8855 12.1659 17.6629C12.4138 16.1451 12.1137 14.5497 11.2656 13.22Z" fill="#A03968"/>
<path d="M13.2201 9.73437C12.8771 9.95311 12.5518 10.2083 12.2501 10.5C12.3255 10.5729 12.4024 10.6435 12.4807 10.7119C12.8095 10.999 13.1627 11.246 13.5334 11.4527C14.1336 11.7873 14.7797 12.0166 15.4429 12.1406C17.3935 12.5052 19.4915 11.9583 21 10.5C20.0578 9.5891 18.8855 9.0338 17.6629 8.83411C16.1452 8.58621 14.5497 8.8863 13.2201 9.73437Z" fill="#A03968"/>
</svg>
