<svg width="37" height="37" viewBox="0 0 37 37" fill="none" xmlns="http://www.w3.org/2000/svg">
<circle cx="18.5" cy="18.5" r="18.5" fill="#A03968"/>
<path d="M16.4616 16.4505C16.5272 16.382 16.533 16.2742 16.4702 16.2031L13.5367 12.8868C13.3574 12.7051 13.0659 12.7044 12.8857 12.8851C12.7054 13.0659 12.7047 13.3597 12.884 13.5414L16.2086 16.4655C16.282 16.5302 16.394 16.5212 16.4616 16.4505Z" fill="#FFFCED"/>
<path d="M20.5384 16.4505C20.4728 16.382 20.467 16.2742 20.5298 16.2031L23.4633 12.8868C23.6426 12.7051 23.9341 12.7044 24.1143 12.8851C24.2946 13.0659 24.2953 13.3597 24.116 13.5414L20.7914 16.4655C20.718 16.5302 20.606 16.5212 20.5384 16.4505Z" fill="#FFFCED"/>
<path d="M20.5384 20.5495C20.4728 20.6181 20.467 20.7258 20.5298 20.7969L23.4633 24.1133C23.6426 24.2949 23.9341 24.2957 24.1143 24.1149C24.2946 23.9341 24.2953 23.6403 24.116 23.4586L20.7914 20.5345C20.718 20.4699 20.606 20.4788 20.5384 20.5495Z" fill="#FFFCED"/>
<path d="M16.4616 20.5495C16.5272 20.6181 16.533 20.7258 16.4702 20.7969L13.5367 24.1133C13.3574 24.2949 13.0659 24.2957 12.8857 24.1149C12.7054 23.9341 12.7047 23.6403 12.884 23.4586L16.2086 20.5345C16.282 20.4699 16.394 20.4788 16.4616 20.5495Z" fill="#FFFCED"/>
<path d="M17.6614 15.5209C17.901 15.8965 18.1805 16.2528 18.5 16.5833C18.5798 16.5006 18.6572 16.4164 18.7321 16.3307C19.0465 15.9706 19.317 15.5837 19.5434 15.1777C19.9099 14.5204 20.1611 13.8127 20.2968 13.0864C20.6961 10.95 20.0972 8.6522 18.5 7C17.5023 8.03199 16.8942 9.31585 16.6754 10.6549C16.4039 12.3172 16.7326 14.0646 17.6614 15.5209Z" fill="#FFFCED"/>
<path d="M15.5209 19.3386C15.8965 19.099 16.2528 18.8195 16.5832 18.5C16.5006 18.4202 16.4164 18.3428 16.3306 18.2679C15.9705 17.9535 15.5837 17.683 15.1777 17.4566C14.5204 17.0901 13.8127 16.8389 13.0863 16.7032C10.95 16.3039 8.65219 16.9028 7 18.5C8.03198 19.4977 9.31584 20.1058 10.6549 20.3245C12.3172 20.5961 14.0646 20.2674 15.5209 19.3386Z" fill="#FFFCED"/>
<path d="M19.3386 21.4791C19.099 21.1035 18.8195 20.7472 18.5 20.4167C18.4202 20.4994 18.3428 20.5836 18.2679 20.6693C17.9535 21.0294 17.683 21.4163 17.4566 21.8223C17.0901 22.4796 16.8389 23.1873 16.7032 23.9136C16.3039 26.05 16.9028 28.3478 18.5 30C19.4977 28.968 20.1058 27.6842 20.3245 26.3451C20.5961 24.6828 20.2674 22.9354 19.3386 21.4791Z" fill="#FFFCED"/>
<path d="M21.4791 17.6614C21.1035 17.901 20.7472 18.1805 20.4168 18.5C20.4994 18.5798 20.5836 18.6572 20.6694 18.7321C21.0295 19.0466 21.4163 19.317 21.8223 19.5434C22.4796 19.9099 23.1873 20.1611 23.9137 20.2968C26.05 20.6961 28.3478 20.0972 30 18.5C28.968 17.5023 27.6842 16.8942 26.3451 16.6755C24.6828 16.4039 22.9354 16.7326 21.4791 17.6614Z" fill="#FFFCED"/>
</svg>
